<?xml version="1.0" encoding="utf-8"?>
<!-- Generator: Adobe Illustrator 22.0.1, SVG Export Plug-In . SVG Version: 6.00 Build 0)  -->
<svg version="1.1" id="Layer_1" xmlns="http://www.w3.org/2000/svg" xmlns:xlink="http://www.w3.org/1999/xlink" x="0px" y="0px"
	 viewBox="0 0 30 33" style="enable-background:new 0 0 30 33;" xml:space="preserve">
<path class="st0" d="M15,32.8c-8,0-14.5-6.5-14.5-14.5C0.5,13,3.4,8.1,8.1,5.5l4.6-4.6c1.2-1.2,3.2-1.2,4.5,0l4.6,4.6
	c4.8,2.5,7.7,7.4,7.7,12.8C29.5,26.3,23,32.8,15,32.8z M15,1.3c-0.5,0-1,0.2-1.3,0.6L8.8,6.6c-4.4,2.3-7.1,6.8-7.1,11.7
	c0,7.3,5.9,13.3,13.3,13.3s13.3-5.9,13.3-13.3c0-4.9-2.7-9.4-7.1-11.7L21,6.5l-4.7-4.7C15.9,1.4,15.5,1.3,15,1.3z"/>
</svg>
